<svg width="16" height="26" viewBox="0 0 16 26" fill="none" xmlns="http://www.w3.org/2000/svg">
<path d="M7.9998 21.3333C7.82961 21.3325 7.66174 21.2937 7.50838 21.2199C7.35501 21.1461 7.22 21.0391 7.11314 20.9066L4.30647 17.5066C4.14246 17.302 4.03926 17.0553 4.00861 16.7948C3.97797 16.5343 4.02111 16.2705 4.13314 16.0333C4.22399 15.8272 4.37225 15.6516 4.56021 15.5275C4.74818 15.4033 4.9679 15.3359 5.19314 15.3333H10.8065C11.0317 15.3359 11.2514 15.4033 11.4394 15.5275C11.6274 15.6516 11.7756 15.8272 11.8665 16.0333C11.9785 16.2705 12.0216 16.5343 11.991 16.7948C11.9603 17.0553 11.8571 17.302 11.6931 17.5066L8.88647 20.9066C8.7796 21.0391 8.64459 21.1461 8.49123 21.2199C8.33786 21.2937 8.17 21.3325 7.9998 21.3333Z" fill="#B2B2B2"/>
<path d="M8.0002 4.66669C8.17039 4.66755 8.33826 4.70628 8.49162 4.78008C8.64499 4.85388 8.78 4.96089 8.88686 5.09335L11.6935 8.49335C11.8575 8.69804 11.9607 8.94468 11.9914 9.20517C12.022 9.46567 11.9789 9.72953 11.8669 9.96669C11.776 10.1728 11.6277 10.3484 11.4398 10.4725C11.2518 10.5967 11.0321 10.6641 10.8069 10.6667L5.19353 10.6667C4.9683 10.6641 4.74857 10.5967 4.56061 10.4725C4.37264 10.3484 4.22438 10.1728 4.13353 9.96669C4.02151 9.72952 3.97836 9.46566 4.00901 9.20517C4.03965 8.94468 4.14286 8.69804 4.30686 8.49335L7.11353 5.09335C7.2204 4.96089 7.35541 4.85388 7.50877 4.78008C7.66214 4.70628 7.83 4.66755 8.0002 4.66669Z" fill="#B2B2B2"/>
</svg>
