<svg width="453" height="486" viewBox="0 0 453 486" fill="none" xmlns="http://www.w3.org/2000/svg">
<path fill-rule="evenodd" clip-rule="evenodd" d="M144.615 65.3969C178.451 58.1485 214.565 49.3108 246.451 65.3967C276.998 80.8075 284.105 122.265 307.975 147.811C338.612 180.598 395.046 190.991 405.14 235.228C415.123 278.981 379.159 316.95 354.628 352.263C330.296 387.289 306.896 436.272 264.957 437.027C221.737 437.805 198.121 381.515 161.454 355.741C137.717 339.055 108.746 334.387 88.5792 313.048C65.5834 288.716 47.321 260.008 39.7777 226.996C30.7439 187.462 20.8094 141.856 41.9976 109.195C63.2493 76.4376 107.32 73.3865 144.615 65.3969Z" fill="url(#paint0_linear)"/>
<g filter="url(#filter0_d)">
<path d="M325.477 317.164C325.477 323.15 320.568 328.062 314.584 328.062H72.7938C66.8106 328.062 61.9009 323.15 61.9009 317.164V154.438C61.9009 148.452 66.8106 143.54 72.7938 143.54H314.584C320.568 143.54 325.477 148.452 325.477 154.438V317.164Z" fill="white"/>
</g>
<path d="M117.557 177.613C117.557 185.416 111.216 191.767 103.381 191.767C95.5648 191.767 89.2036 185.436 89.2036 177.613C89.2036 169.791 95.5454 163.46 103.381 163.46C111.216 163.479 117.557 169.81 117.557 177.613Z" fill="url(#paint1_linear)"/>
<path d="M289.974 213.784H121.557C119.348 213.784 117.557 215.575 117.557 217.784V220.268C117.557 222.477 119.347 224.268 121.557 224.268H289.974C292.184 224.268 293.974 222.477 293.974 220.268V217.784C293.974 215.575 292.184 213.784 289.974 213.784Z" fill="url(#paint2_linear)"/>
<path d="M240.619 236.849H160.41C158.201 236.849 156.41 238.64 156.41 240.849V243.334C156.41 245.543 158.201 247.334 160.41 247.334H240.619C242.828 247.334 244.619 245.543 244.619 243.334V240.849C244.619 238.64 242.828 236.849 240.619 236.849Z" fill="url(#paint3_linear)"/>
<path d="M153.789 287.174H91.8247C90.3771 287.174 89.2036 288.347 89.2036 289.795C89.2036 291.242 90.3771 292.416 91.8247 292.416H153.789C155.237 292.416 156.41 291.242 156.41 289.795C156.41 288.347 155.237 287.174 153.789 287.174Z" fill="url(#paint4_linear)"/>
<path d="M153.789 298.706H91.8247C90.3771 298.706 89.2036 299.88 89.2036 301.327C89.2036 302.775 90.3771 303.949 91.8247 303.949H153.789C155.237 303.949 156.41 302.775 156.41 301.327C156.41 299.88 155.237 298.706 153.789 298.706Z" fill="url(#paint5_linear)"/>
<g filter="url(#filter1_d)">
<path d="M257 362.835L249.806 348.764L235.621 355.764L248.497 316.902L269.886 323.963L257 362.835Z" fill="url(#paint6_linear)"/>
<path d="M292.249 362.835L299.453 348.764L313.638 355.764L300.752 316.902L279.363 323.963L292.249 362.835Z" fill="url(#paint7_linear)"/>
<g filter="url(#filter2_d)">
<path d="M312.649 293.82C312.649 314.611 295.89 331.463 275.214 331.463C254.537 331.463 237.778 314.611 237.778 293.82C237.778 273.03 254.537 256.178 275.214 256.178C295.89 256.178 312.649 273.03 312.649 293.82Z" fill="url(#paint8_linear)"/>
</g>
<path d="M303.898 292.985C303.898 308.914 290.844 321.817 274.752 321.817C258.65 321.817 245.606 308.904 245.606 292.985C245.606 277.055 258.66 264.152 274.752 264.152C290.855 264.152 303.898 277.055 303.898 292.985Z" fill="white"/>
<path d="M304.511 293.059C304.511 309.03 291.32 321.966 275.059 321.966C258.787 321.966 245.606 309.02 245.606 293.059C245.606 277.089 258.797 264.152 275.059 264.152C291.33 264.152 304.511 277.089 304.511 293.059Z" fill="url(#paint9_linear)"/>
<path d="M270.308 303.534C270.107 303.573 269.899 303.579 269.691 303.584C268.92 303.559 268.191 303.213 267.665 302.654L259.853 293.973C258.828 292.815 258.906 291.061 260.059 290.004C261.219 288.98 262.976 289.058 264.035 290.21L269.889 296.695L284.643 281.884C285.723 280.806 287.527 280.77 288.613 281.882C289.699 282.994 289.728 284.762 288.615 285.846L271.755 302.733C271.383 303.153 270.879 303.424 270.308 303.534Z" fill="url(#paint10_linear)"/>
</g>
<defs>
<filter id="filter0_d" x="51.9009" y="137.54" width="283.577" height="204.523" filterUnits="userSpaceOnUse" color-interpolation-filters="sRGB">
<feFlood flood-opacity="0" result="BackgroundImageFix"/>
<feColorMatrix in="SourceAlpha" type="matrix" values="0 0 0 0 0 0 0 0 0 0 0 0 0 0 0 0 0 0 127 0"/>
<feOffset dy="4"/>
<feGaussianBlur stdDeviation="5"/>
<feColorMatrix type="matrix" values="0 0 0 0 0.235294 0 0 0 0 0.647059 0 0 0 0 0.819608 0 0 0 0.2 0"/>
<feBlend mode="normal" in2="BackgroundImageFix" result="effect1_dropShadow"/>
<feBlend mode="normal" in="SourceGraphic" in2="effect1_dropShadow" result="shape"/>
</filter>
<filter id="filter1_d" x="220.621" y="245.178" width="108.017" height="136.657" filterUnits="userSpaceOnUse" color-interpolation-filters="sRGB">
<feFlood flood-opacity="0" result="BackgroundImageFix"/>
<feColorMatrix in="SourceAlpha" type="matrix" values="0 0 0 0 0 0 0 0 0 0 0 0 0 0 0 0 0 0 127 0"/>
<feOffset dy="4"/>
<feGaussianBlur stdDeviation="7.5"/>
<feColorMatrix type="matrix" values="0 0 0 0 0.235294 0 0 0 0 0.647059 0 0 0 0 0.819608 0 0 0 0.2 0"/>
<feBlend mode="normal" in2="BackgroundImageFix" result="effect1_dropShadow"/>
<feBlend mode="normal" in="SourceGraphic" in2="effect1_dropShadow" result="shape"/>
</filter>
<filter id="filter2_d" x="233.778" y="256.178" width="82.8708" height="83.285" filterUnits="userSpaceOnUse" color-interpolation-filters="sRGB">
<feFlood flood-opacity="0" result="BackgroundImageFix"/>
<feColorMatrix in="SourceAlpha" type="matrix" values="0 0 0 0 0 0 0 0 0 0 0 0 0 0 0 0 0 0 127 0"/>
<feOffset dy="4"/>
<feGaussianBlur stdDeviation="2"/>
<feColorMatrix type="matrix" values="0 0 0 0 0.0313725 0 0 0 0 0.0470588 0 0 0 0 0.129412 0 0 0 0.15 0"/>
<feBlend mode="normal" in2="BackgroundImageFix" result="effect1_dropShadow"/>
<feBlend mode="normal" in="SourceGraphic" in2="effect1_dropShadow" result="shape"/>
</filter>
<linearGradient id="paint0_linear" x1="287.103" y1="68.4006" x2="104.518" y2="356.59" gradientUnits="userSpaceOnUse">
<stop stop-color="#00B2EE" stop-opacity="0"/>
<stop offset="1" stop-color="#00B2EE" stop-opacity="0.36"/>
</linearGradient>
<linearGradient id="paint1_linear" x1="120.053" y1="178.342" x2="87.5597" y2="178.342" gradientUnits="userSpaceOnUse">
<stop stop-color="#00B2EE" stop-opacity="0"/>
<stop offset="1" stop-color="#00B2EE" stop-opacity="0.36"/>
</linearGradient>
<linearGradient id="paint2_linear" x1="309.503" y1="219.296" x2="107.328" y2="219.296" gradientUnits="userSpaceOnUse">
<stop stop-color="#00B2EE" stop-opacity="0"/>
<stop offset="1" stop-color="#00B2EE" stop-opacity="0.36"/>
</linearGradient>
<linearGradient id="paint3_linear" x1="252.383" y1="242.362" x2="151.296" y2="242.362" gradientUnits="userSpaceOnUse">
<stop stop-color="#00B2EE" stop-opacity="0"/>
<stop offset="1" stop-color="#00B2EE" stop-opacity="0.36"/>
</linearGradient>
<linearGradient id="paint4_linear" x1="162.326" y1="289.93" x2="85.307" y2="289.93" gradientUnits="userSpaceOnUse">
<stop stop-color="#00B2EE" stop-opacity="0"/>
<stop offset="1" stop-color="#00B2EE" stop-opacity="0.36"/>
</linearGradient>
<linearGradient id="paint5_linear" x1="162.326" y1="301.463" x2="85.307" y2="301.463" gradientUnits="userSpaceOnUse">
<stop stop-color="#00B2EE" stop-opacity="0"/>
<stop offset="1" stop-color="#00B2EE" stop-opacity="0.36"/>
</linearGradient>
<linearGradient id="paint6_linear" x1="238.691" y1="319.636" x2="309.747" y2="351.057" gradientUnits="userSpaceOnUse">
<stop stop-color="#434E91"/>
<stop offset="0.932292" stop-color="#30C2FF"/>
</linearGradient>
<linearGradient id="paint7_linear" x1="282.434" y1="319.636" x2="353.504" y2="351.073" gradientUnits="userSpaceOnUse">
<stop stop-color="#434E91"/>
<stop offset="0.932292" stop-color="#30C2FF"/>
</linearGradient>
<linearGradient id="paint8_linear" x1="244.486" y1="260.659" x2="382.235" y2="341.864" gradientUnits="userSpaceOnUse">
<stop stop-color="#01C3CB"/>
<stop offset="0.932292" stop-color="#00B2EE"/>
</linearGradient>
<linearGradient id="paint9_linear" x1="309.696" y1="294.549" x2="242.191" y2="294.549" gradientUnits="userSpaceOnUse">
<stop stop-color="#00B2EE" stop-opacity="0"/>
<stop offset="1" stop-color="#00B2EE" stop-opacity="0.36"/>
</linearGradient>
<linearGradient id="paint10_linear" x1="260.986" y1="287.116" x2="307.434" y2="317.797" gradientUnits="userSpaceOnUse">
<stop stop-color="#434E91"/>
<stop offset="0.932292" stop-color="#30C2FF"/>
</linearGradient>
</defs>
</svg>
