<svg width="470" height="475" viewBox="0 0 470 475" fill="none" xmlns="http://www.w3.org/2000/svg">
<path fill-rule="evenodd" clip-rule="evenodd" d="M301.134 67.251C275.452 59.2994 248.13 71.7838 223.615 82.3999C203.331 91.1838 187.877 97.2823 169.029 108.758C147.513 121.857 124.11 137.6 105.389 154.379C80.5125 176.676 46.7136 201.064 48.2592 234.431C49.7715 267.079 94.3152 279.885 112.473 307.306C132.496 337.544 129.255 383.325 159.877 402.993C190.259 422.506 232.22 417.73 266.187 406.031C297.906 395.106 314.86 362.827 340.076 340.928C363.278 320.779 394.858 309.261 408.962 282.042C423.422 254.137 428.232 219.783 418.408 189.759C408.96 160.885 378.286 145.811 357.169 123.751C338.512 104.261 326.958 75.2464 301.134 67.251Z" fill="url(#paint0_linear)"/>
<g filter="url(#filter0_d)">
<path d="M441.532 303.681C441.532 309.675 436.862 314.593 431.17 314.593H201.16C195.468 314.593 190.798 309.675 190.798 303.681V140.745C190.798 134.751 195.468 129.832 201.16 129.832H431.17C436.862 129.832 441.532 134.751 441.532 140.745V303.681Z" fill="white"/>
</g>
<mask id="mask0" mask-type="alpha" maskUnits="userSpaceOnUse" x="190" y="129" width="252" height="186">
<path d="M441.532 303.681C441.532 309.675 436.862 314.593 431.17 314.593H201.16C195.468 314.593 190.798 309.675 190.798 303.681V140.745C190.798 134.751 195.468 129.832 201.16 129.832H431.17C436.862 129.832 441.532 134.751 441.532 140.745V303.681Z" fill="white"/>
</mask>
<g mask="url(#mask0)">
<path d="M188.8 128.833H444.529V170.779H188.8V128.833Z" fill="#F3FAFF"/>
</g>
<path d="M230.755 151.304C230.755 154.333 228.298 156.797 225.261 156.797C222.232 156.797 219.767 154.34 219.767 151.304C219.767 148.269 222.225 145.811 225.261 145.811C228.298 145.819 230.755 148.276 230.755 151.304Z" fill="url(#paint1_linear)"/>
<path d="M213.774 151.304C213.774 154.333 211.316 156.797 208.279 156.797C205.25 156.797 202.785 154.34 202.785 151.304C202.785 148.269 205.243 145.811 208.279 145.811C211.316 145.819 213.774 148.276 213.774 151.304Z" fill="url(#paint2_linear)"/>
<path d="M416.555 145.811H267.721C265.512 145.811 263.721 147.602 263.721 149.811V152.797C263.721 155.006 265.512 156.797 267.721 156.797H416.555C418.764 156.797 420.555 155.006 420.555 152.797V149.811C420.555 147.602 418.764 145.811 416.555 145.811Z" fill="url(#paint3_linear)"/>
<path d="M369.11 258.666H263.221C261.29 258.666 259.725 260.231 259.725 262.161C259.725 264.092 261.29 265.657 263.221 265.657H369.11C371.041 265.657 372.606 264.092 372.606 262.161C372.606 260.231 371.041 258.666 369.11 258.666Z" fill="url(#paint4_linear)"/>
<path d="M354.126 271.649H277.205C275.275 271.649 273.71 273.214 273.71 275.144C273.71 277.075 275.275 278.64 277.205 278.64H354.126C356.056 278.64 357.621 277.075 357.621 275.144C357.621 273.214 356.056 271.649 354.126 271.649Z" fill="url(#paint5_linear)"/>
<path d="M390.582 192.751H241.748C239.539 192.751 237.748 194.542 237.748 196.751V233.693C237.748 235.902 239.539 237.693 241.748 237.693H390.582C392.791 237.693 394.582 235.902 394.582 233.693V196.751C394.582 194.542 392.791 192.751 390.582 192.751Z" fill="url(#paint6_linear)"/>
<g clip-path="url(#clip0)" filter="url(#filter1_d)">
<g filter="url(#filter2_d)">
<path d="M204.168 289.092C198.039 282.87 189.913 279.444 181.288 279.444H171.338C162.713 279.444 154.587 282.87 148.458 289.092C142.358 295.284 138.999 303.457 138.999 312.106C138.999 313.48 140.113 314.594 141.487 314.594H211.139C212.513 314.594 213.627 313.48 213.627 312.106C213.627 303.457 210.268 295.284 204.168 289.092Z" fill="url(#paint7_linear)"/>
<path d="M176.313 229.703C163.968 229.703 153.925 239.744 153.925 252.086C153.925 264.428 163.968 274.47 176.313 274.47C188.658 274.47 198.702 264.428 198.702 252.086C198.702 239.744 188.658 229.703 176.313 229.703Z" fill="url(#paint8_linear)"/>
</g>
</g>
<g clip-path="url(#clip1)" filter="url(#filter3_d)">
<g filter="url(#filter4_d)">
<path d="M231.254 207.731C215.714 207.731 203.071 220.371 203.071 235.908C203.071 251.444 215.714 264.084 231.254 264.084C246.794 264.084 259.437 251.444 259.437 235.908C259.437 220.371 246.794 207.731 231.254 207.731Z" fill="url(#paint9_linear)"/>
<path d="M266.32 282.492C258.604 274.659 248.375 270.346 237.517 270.346H224.992C214.134 270.346 203.905 274.659 196.189 282.492C188.511 290.286 184.283 300.575 184.283 311.463C184.283 313.192 185.685 314.593 187.414 314.593H275.095C276.824 314.593 278.226 313.192 278.226 311.463C278.226 300.575 273.998 290.286 266.32 282.492Z" fill="url(#paint10_linear)"/>
</g>
</g>
<defs>
<filter id="filter0_d" x="180.798" y="123.832" width="270.734" height="204.761" filterUnits="userSpaceOnUse" color-interpolation-filters="sRGB">
<feFlood flood-opacity="0" result="BackgroundImageFix"/>
<feColorMatrix in="SourceAlpha" type="matrix" values="0 0 0 0 0 0 0 0 0 0 0 0 0 0 0 0 0 0 127 0"/>
<feOffset dy="4"/>
<feGaussianBlur stdDeviation="5"/>
<feColorMatrix type="matrix" values="0 0 0 0 0.235294 0 0 0 0 0.647059 0 0 0 0 0.819608 0 0 0 0.2 0"/>
<feBlend mode="normal" in2="BackgroundImageFix" result="effect1_dropShadow"/>
<feBlend mode="normal" in="SourceGraphic" in2="effect1_dropShadow" result="shape"/>
</filter>
<filter id="filter1_d" x="123.858" y="224.703" width="104.91" height="104.89" filterUnits="userSpaceOnUse" color-interpolation-filters="sRGB">
<feFlood flood-opacity="0" result="BackgroundImageFix"/>
<feColorMatrix in="SourceAlpha" type="matrix" values="0 0 0 0 0 0 0 0 0 0 0 0 0 0 0 0 0 0 127 0"/>
<feOffset dy="5"/>
<feGaussianBlur stdDeviation="5"/>
<feColorMatrix type="matrix" values="0 0 0 0 0.192157 0 0 0 0 0.215686 0 0 0 0 0.380392 0 0 0 0.1 0"/>
<feBlend mode="normal" in2="BackgroundImageFix" result="effect1_dropShadow"/>
<feBlend mode="normal" in="SourceGraphic" in2="effect1_dropShadow" result="shape"/>
</filter>
<filter id="filter2_d" x="128.999" y="224.703" width="94.628" height="104.89" filterUnits="userSpaceOnUse" color-interpolation-filters="sRGB">
<feFlood flood-opacity="0" result="BackgroundImageFix"/>
<feColorMatrix in="SourceAlpha" type="matrix" values="0 0 0 0 0 0 0 0 0 0 0 0 0 0 0 0 0 0 127 0"/>
<feOffset dy="5"/>
<feGaussianBlur stdDeviation="5"/>
<feColorMatrix type="matrix" values="0 0 0 0 0.192157 0 0 0 0 0.215686 0 0 0 0 0.380392 0 0 0 0.1 0"/>
<feBlend mode="normal" in2="BackgroundImageFix" result="effect1_dropShadow"/>
<feBlend mode="normal" in="SourceGraphic" in2="effect1_dropShadow" result="shape"/>
</filter>
<filter id="filter3_d" x="173.811" y="207.731" width="114.887" height="115.862" filterUnits="userSpaceOnUse" color-interpolation-filters="sRGB">
<feFlood flood-opacity="0" result="BackgroundImageFix"/>
<feColorMatrix in="SourceAlpha" type="matrix" values="0 0 0 0 0 0 0 0 0 0 0 0 0 0 0 0 0 0 127 0"/>
<feOffset dy="5"/>
<feGaussianBlur stdDeviation="2"/>
<feColorMatrix type="matrix" values="0 0 0 0 0.235294 0 0 0 0 0.647059 0 0 0 0 0.819608 0 0 0 0.2 0"/>
<feBlend mode="normal" in2="BackgroundImageFix" result="effect1_dropShadow"/>
<feBlend mode="normal" in="SourceGraphic" in2="effect1_dropShadow" result="shape"/>
</filter>
<filter id="filter4_d" x="174.283" y="202.731" width="113.943" height="126.862" filterUnits="userSpaceOnUse" color-interpolation-filters="sRGB">
<feFlood flood-opacity="0" result="BackgroundImageFix"/>
<feColorMatrix in="SourceAlpha" type="matrix" values="0 0 0 0 0 0 0 0 0 0 0 0 0 0 0 0 0 0 127 0"/>
<feOffset dy="5"/>
<feGaussianBlur stdDeviation="5"/>
<feColorMatrix type="matrix" values="0 0 0 0 0.192157 0 0 0 0 0.215686 0 0 0 0 0.380392 0 0 0 0.1 0"/>
<feBlend mode="normal" in2="BackgroundImageFix" result="effect1_dropShadow"/>
<feBlend mode="normal" in="SourceGraphic" in2="effect1_dropShadow" result="shape"/>
</filter>
<linearGradient id="paint0_linear" x1="366.611" y1="96.8749" x2="189.625" y2="390.449" gradientUnits="userSpaceOnUse">
<stop stop-color="#00B2EE" stop-opacity="0"/>
<stop offset="1" stop-color="#00B2EE" stop-opacity="0.36"/>
</linearGradient>
<linearGradient id="paint1_linear" x1="231.723" y1="151.587" x2="219.13" y2="151.587" gradientUnits="userSpaceOnUse">
<stop stop-color="#00B2EE" stop-opacity="0"/>
<stop offset="1" stop-color="#00B2EE" stop-opacity="0.36"/>
</linearGradient>
<linearGradient id="paint2_linear" x1="214.741" y1="151.587" x2="202.148" y2="151.587" gradientUnits="userSpaceOnUse">
<stop stop-color="#00B2EE" stop-opacity="0"/>
<stop offset="1" stop-color="#00B2EE" stop-opacity="0.36"/>
</linearGradient>
<linearGradient id="paint3_linear" x1="434.36" y1="151.587" x2="254.627" y2="151.587" gradientUnits="userSpaceOnUse">
<stop stop-color="#00B2EE" stop-opacity="0"/>
<stop offset="1" stop-color="#00B2EE" stop-opacity="0.36"/>
</linearGradient>
<linearGradient id="paint4_linear" x1="382.542" y1="262.341" x2="253.18" y2="262.341" gradientUnits="userSpaceOnUse">
<stop stop-color="#00B2EE" stop-opacity="0"/>
<stop offset="1" stop-color="#00B2EE" stop-opacity="0.36"/>
</linearGradient>
<linearGradient id="paint5_linear" x1="365.007" y1="275.325" x2="268.845" y2="275.325" gradientUnits="userSpaceOnUse">
<stop stop-color="#00B2EE" stop-opacity="0"/>
<stop offset="1" stop-color="#00B2EE" stop-opacity="0.36"/>
</linearGradient>
<linearGradient id="paint6_linear" x1="408.387" y1="216.38" x2="228.655" y2="216.38" gradientUnits="userSpaceOnUse">
<stop stop-color="#00B2EE" stop-opacity="0"/>
<stop offset="1" stop-color="#00B2EE" stop-opacity="0.36"/>
</linearGradient>
<linearGradient id="paint7_linear" x1="145.684" y1="281.536" x2="217.288" y2="371.652" gradientUnits="userSpaceOnUse">
<stop stop-color="#01C3CB"/>
<stop offset="0.932292" stop-color="#00B2EE"/>
</linearGradient>
<linearGradient id="paint8_linear" x1="157.936" y1="232.368" x2="240.073" y2="281.068" gradientUnits="userSpaceOnUse">
<stop stop-color="#01C3CB"/>
<stop offset="0.932292" stop-color="#00B2EE"/>
</linearGradient>
<linearGradient id="paint9_linear" x1="208.121" y1="211.086" x2="311.517" y2="272.39" gradientUnits="userSpaceOnUse">
<stop stop-color="#434E91"/>
<stop offset="0.932292" stop-color="#30C2FF"/>
</linearGradient>
<linearGradient id="paint10_linear" x1="192.698" y1="272.98" x2="282.835" y2="386.421" gradientUnits="userSpaceOnUse">
<stop stop-color="#434E91"/>
<stop offset="0.932292" stop-color="#30C2FF"/>
</linearGradient>
<clipPath id="clip0">
<rect width="84.91" height="84.8904" fill="white" transform="translate(133.858 229.703)"/>
</clipPath>
<clipPath id="clip1">
<rect width="106.887" height="106.862" fill="white" transform="translate(177.811 207.731)"/>
</clipPath>
</defs>
</svg>
