<svg width="424" height="488" viewBox="0 0 424 488" fill="none" xmlns="http://www.w3.org/2000/svg">
<path fill-rule="evenodd" clip-rule="evenodd" d="M199.6 7.65939C247.536 19.6367 272.128 71.0717 311.202 102.131C348.655 131.901 416.053 137.408 423.454 185.594C431.155 235.726 355.016 259.52 342.936 308.723C329.23 364.547 395.073 440.512 351.906 477.005C309.879 512.536 249.304 452.538 199.6 429.9C169.468 416.176 142.449 397.968 121.251 371.953C103.969 350.743 106.411 319.878 91.2911 296.978C66.0366 258.727 13.4036 240.654 4.59788 195.269C-6.12748 139.989 0.399339 72.8996 40.3568 34.4571C80.6832 -4.34046 146.017 -5.72902 199.6 7.65939Z" fill="url(#paint0_linear)"/>
<g filter="url(#filter0_d)">
<path d="M311.461 387.241C311.461 398.029 306.548 406.882 300.562 406.882H58.619C52.6321 406.882 47.7192 398.029 47.7192 387.241V93.9851C47.7192 83.1967 52.6321 74.3439 58.619 74.3439H300.562C306.548 74.3439 311.461 83.1967 311.461 93.9851V387.241Z" fill="white"/>
</g>
<g filter="url(#filter1_d)">
<path d="M230.351 373.729L224.699 362.595L213.557 368.134L223.671 337.385L240.473 342.972L230.351 373.729Z" fill="url(#paint1_linear)"/>
<path d="M258.04 373.729L263.699 362.595L274.842 368.134L264.719 337.385L247.917 342.972L258.04 373.729Z" fill="url(#paint2_linear)"/>
<g filter="url(#filter2_d)">
<path d="M274.066 319.122C274.066 335.572 260.901 348.906 244.659 348.906C228.417 348.906 215.252 335.572 215.252 319.122C215.252 302.672 228.417 289.338 244.659 289.338C260.901 289.338 274.066 302.672 274.066 319.122Z" fill="url(#paint3_linear)"/>
</g>
<path d="M267.19 318.461C267.19 331.065 256.936 341.274 244.295 341.274C231.646 341.274 221.399 331.057 221.399 318.461C221.399 305.857 231.654 295.648 244.295 295.648C256.944 295.648 267.19 305.857 267.19 318.461Z" fill="white"/>
<path d="M267.19 318.461C267.19 331.065 256.936 341.274 244.295 341.274C231.646 341.274 221.399 331.057 221.399 318.461C221.399 305.857 231.654 295.648 244.295 295.648C256.944 295.648 267.19 305.857 267.19 318.461Z" fill="url(#paint4_linear)"/>
<path d="M240.804 326.808C240.646 326.839 240.483 326.843 240.319 326.847C239.714 326.828 239.141 326.554 238.728 326.111L232.591 319.243C231.786 318.327 231.847 316.939 232.753 316.102C233.665 315.292 235.044 315.354 235.876 316.265L240.475 321.397L252.065 309.677C252.913 308.825 254.33 308.797 255.183 309.676C256.037 310.556 256.059 311.955 255.185 312.813L241.941 326.174C241.649 326.506 241.253 326.721 240.804 326.808Z" fill="url(#paint5_linear)"/>
</g>
<path d="M264.204 221.022H95.6758C93.4666 221.022 91.6758 222.813 91.6758 225.022V227.589C91.6758 229.798 93.4666 231.589 95.6758 231.589H264.204C266.413 231.589 268.204 229.798 268.204 227.589V225.022C268.204 222.813 266.413 221.022 264.204 221.022Z" fill="url(#paint6_linear)"/>
<path d="M264.204 240.111H95.6758C93.4666 240.111 91.6758 241.902 91.6758 244.111V246.678C91.6758 248.887 93.4666 250.678 95.6758 250.678H264.204C266.413 250.678 268.204 248.887 268.204 246.678V244.111C268.204 241.902 266.413 240.111 264.204 240.111Z" fill="url(#paint7_linear)"/>
<path d="M209.557 259.199H95.6758C93.4666 259.199 91.6758 260.99 91.6758 263.199V266.25C91.6758 268.459 93.4666 270.25 95.6758 270.25H209.557C211.766 270.25 213.557 268.459 213.557 266.25V263.199C213.557 260.99 211.766 259.199 209.557 259.199Z" fill="url(#paint8_linear)"/>
<g filter="url(#filter3_d)">
<rect x="41.7246" y="122.567" width="145.857" height="64.2974" rx="4" fill="url(#paint9_linear)"/>
</g>
<path d="M82.1804 166.613V158.081H88.3004C93.4844 158.081 96.3644 154.517 96.3644 150.341C96.3644 146.129 93.5204 142.601 88.3004 142.601H77.0684V166.613H82.1804ZM87.6164 153.581H82.1804V147.101H87.6164C89.6324 147.101 91.1444 148.325 91.1444 150.341C91.1444 152.321 89.6324 153.581 87.6164 153.581Z" fill="white"/>
<path d="M113.681 166.613C121.205 166.613 126.425 161.861 126.425 154.625C126.425 147.389 121.205 142.601 113.681 142.601H104.213V166.613H113.681ZM113.681 162.113H109.325V147.101H113.681C118.613 147.101 121.205 150.377 121.205 154.625C121.205 158.693 118.433 162.113 113.681 162.113Z" fill="white"/>
<path d="M139.845 166.613V156.677H151.473V152.177H139.845V147.101H151.725V142.601H134.733V166.613H139.845Z" fill="white"/>
<defs>
<filter id="filter0_d" x="37.7192" y="68.3439" width="283.742" height="352.538" filterUnits="userSpaceOnUse" color-interpolation-filters="sRGB">
<feFlood flood-opacity="0" result="BackgroundImageFix"/>
<feColorMatrix in="SourceAlpha" type="matrix" values="0 0 0 0 0 0 0 0 0 0 0 0 0 0 0 0 0 0 127 0"/>
<feOffset dy="4"/>
<feGaussianBlur stdDeviation="5"/>
<feColorMatrix type="matrix" values="0 0 0 0 0.235294 0 0 0 0 0.647059 0 0 0 0 0.819608 0 0 0 0.2 0"/>
<feBlend mode="normal" in2="BackgroundImageFix" result="effect1_dropShadow"/>
<feBlend mode="normal" in="SourceGraphic" in2="effect1_dropShadow" result="shape"/>
</filter>
<filter id="filter1_d" x="198.557" y="278.338" width="91.2852" height="114.39" filterUnits="userSpaceOnUse" color-interpolation-filters="sRGB">
<feFlood flood-opacity="0" result="BackgroundImageFix"/>
<feColorMatrix in="SourceAlpha" type="matrix" values="0 0 0 0 0 0 0 0 0 0 0 0 0 0 0 0 0 0 127 0"/>
<feOffset dy="4"/>
<feGaussianBlur stdDeviation="7.5"/>
<feColorMatrix type="matrix" values="0 0 0 0 0.235294 0 0 0 0 0.647059 0 0 0 0 0.819608 0 0 0 0.2 0"/>
<feBlend mode="normal" in2="BackgroundImageFix" result="effect1_dropShadow"/>
<feBlend mode="normal" in="SourceGraphic" in2="effect1_dropShadow" result="shape"/>
</filter>
<filter id="filter2_d" x="211.252" y="289.338" width="66.814" height="67.5675" filterUnits="userSpaceOnUse" color-interpolation-filters="sRGB">
<feFlood flood-opacity="0" result="BackgroundImageFix"/>
<feColorMatrix in="SourceAlpha" type="matrix" values="0 0 0 0 0 0 0 0 0 0 0 0 0 0 0 0 0 0 127 0"/>
<feOffset dy="4"/>
<feGaussianBlur stdDeviation="2"/>
<feColorMatrix type="matrix" values="0 0 0 0 0.0313725 0 0 0 0 0.0470588 0 0 0 0 0.129412 0 0 0 0.15 0"/>
<feBlend mode="normal" in2="BackgroundImageFix" result="effect1_dropShadow"/>
<feBlend mode="normal" in="SourceGraphic" in2="effect1_dropShadow" result="shape"/>
</filter>
<filter id="filter3_d" x="37.7246" y="122.567" width="153.857" height="72.2974" filterUnits="userSpaceOnUse" color-interpolation-filters="sRGB">
<feFlood flood-opacity="0" result="BackgroundImageFix"/>
<feColorMatrix in="SourceAlpha" type="matrix" values="0 0 0 0 0 0 0 0 0 0 0 0 0 0 0 0 0 0 127 0"/>
<feOffset dy="4"/>
<feGaussianBlur stdDeviation="2"/>
<feColorMatrix type="matrix" values="0 0 0 0 0.0313725 0 0 0 0 0.0470588 0 0 0 0 0.129412 0 0 0 0.15 0"/>
<feBlend mode="normal" in2="BackgroundImageFix" result="effect1_dropShadow"/>
<feBlend mode="normal" in="SourceGraphic" in2="effect1_dropShadow" result="shape"/>
</filter>
<linearGradient id="paint0_linear" x1="349.066" y1="63.7557" x2="27.4335" y2="331.435" gradientUnits="userSpaceOnUse">
<stop stop-color="#00B2EE" stop-opacity="0"/>
<stop offset="1" stop-color="#00B2EE" stop-opacity="0.36"/>
</linearGradient>
<linearGradient id="paint1_linear" x1="215.968" y1="339.549" x2="271.916" y2="364.111" gradientUnits="userSpaceOnUse">
<stop stop-color="#434E91"/>
<stop offset="0.932292" stop-color="#30C2FF"/>
</linearGradient>
<linearGradient id="paint2_linear" x1="250.329" y1="339.549" x2="306.289" y2="364.123" gradientUnits="userSpaceOnUse">
<stop stop-color="#434E91"/>
<stop offset="0.932292" stop-color="#30C2FF"/>
</linearGradient>
<linearGradient id="paint3_linear" x1="220.521" y1="292.884" x2="329.13" y2="356.45" gradientUnits="userSpaceOnUse">
<stop stop-color="#01C3CB"/>
<stop offset="0.932292" stop-color="#00B2EE"/>
</linearGradient>
<linearGradient id="paint4_linear" x1="271.221" y1="319.636" x2="218.744" y2="319.636" gradientUnits="userSpaceOnUse">
<stop stop-color="#00B2EE" stop-opacity="0"/>
<stop offset="1" stop-color="#00B2EE" stop-opacity="0.36"/>
</linearGradient>
<linearGradient id="paint5_linear" x1="233.481" y1="313.818" x2="270.128" y2="337.85" gradientUnits="userSpaceOnUse">
<stop stop-color="#434E91"/>
<stop offset="0.932292" stop-color="#30C2FF"/>
</linearGradient>
<linearGradient id="paint6_linear" x1="283.743" y1="226.578" x2="81.4407" y2="226.578" gradientUnits="userSpaceOnUse">
<stop stop-color="#00B2EE" stop-opacity="0"/>
<stop offset="1" stop-color="#00B2EE" stop-opacity="0.36"/>
</linearGradient>
<linearGradient id="paint7_linear" x1="283.743" y1="245.666" x2="81.4407" y2="245.666" gradientUnits="userSpaceOnUse">
<stop stop-color="#00B2EE" stop-opacity="0"/>
<stop offset="1" stop-color="#00B2EE" stop-opacity="0.36"/>
</linearGradient>
<linearGradient id="paint8_linear" x1="224.285" y1="265.009" x2="84.6091" y2="265.009" gradientUnits="userSpaceOnUse">
<stop stop-color="#00B2EE" stop-opacity="0"/>
<stop offset="1" stop-color="#00B2EE" stop-opacity="0.36"/>
</linearGradient>
<linearGradient id="paint9_linear" x1="54.791" y1="126.394" x2="183.561" y2="299.551" gradientUnits="userSpaceOnUse">
<stop stop-color="#01C3CB"/>
<stop offset="0.932292" stop-color="#00B2EE"/>
</linearGradient>
</defs>
</svg>
