<svg width="113" height="113" viewBox="0 0 113 113" fill="none" xmlns="http://www.w3.org/2000/svg">
<circle cx="56.5" cy="56.5" r="56.5" fill="url(#paint0_linear)" fill-opacity="0.4"/>
<path d="M58.2336 36.0632L59.2943 35.0025L58.2336 36.0632L72.5204 50.35C72.6141 50.4437 72.6668 50.5709 72.6668 50.7035V74.1667C72.6668 74.9403 72.3595 75.6822 71.8125 76.2291C71.2656 76.7761 70.5237 77.0834 69.7502 77.0834H43.2502C42.4766 77.0834 41.7347 76.7761 41.1878 76.2291L40.1271 77.2898L41.1878 76.2291C40.6408 75.6822 40.3335 74.9403 40.3335 74.1667V38.8334C40.3335 38.0599 40.6408 37.318 41.1878 36.771C41.7347 36.224 42.4766 35.9167 43.2502 35.9167H57.8801C58.0127 35.9167 58.1399 35.9694 58.2336 36.0632Z" stroke="#FAFDFF" stroke-width="3"/>
<mask id="path-3-inside-1" fill="white">
<path d="M58.7085 34.4167V47.8751C58.7085 48.9797 59.6039 49.8751 60.7085 49.8751H74.1668"/>
</mask>
<path d="M55.7085 34.4167V47.8751H61.7085V34.4167H55.7085ZM60.7085 52.8751H74.1668V46.8751H60.7085V52.8751ZM55.7085 47.8751C55.7085 50.6365 57.9471 52.8751 60.7085 52.8751V46.8751C61.2608 46.8751 61.7085 47.3228 61.7085 47.8751H55.7085Z" fill="#FAFDFF" mask="url(#path-3-inside-1)"/>
<defs>
<linearGradient id="paint0_linear" x1="93.0293" y1="14.7631" x2="17.364" y2="87.2411" gradientUnits="userSpaceOnUse">
<stop stop-color="#00B2EE" stop-opacity="0"/>
<stop offset="1" stop-color="#00B2EE" stop-opacity="0.36"/>
</linearGradient>
</defs>
</svg>
