<svg width="113" height="113" viewBox="0 0 113 113" fill="none" xmlns="http://www.w3.org/2000/svg">
<circle cx="56.5" cy="56.5" r="56.5" fill="url(#paint0_linear)" fill-opacity="0.4"/>
<path d="M46.4168 76.1666H40.6668C39.6502 76.1666 38.6751 75.7627 37.9563 75.0438C37.2374 74.3249 36.8335 73.3499 36.8335 72.3332V58.9166C36.8335 57.8999 37.2374 56.9249 37.9563 56.206C38.6751 55.4871 39.6502 55.0833 40.6668 55.0833H46.4168M59.8335 51.2499V43.5833C59.8335 42.0583 59.2277 40.5957 58.1494 39.5174C57.071 38.4391 55.6085 37.8333 54.0835 37.8333L46.4168 55.0833V76.1666H68.0368C68.9613 76.177 69.8584 75.853 70.5628 75.2543C71.2672 74.6555 71.7315 73.8223 71.8702 72.9082L74.5152 55.6583C74.5985 55.1089 74.5615 54.5479 74.4066 54.0142C74.2516 53.4806 73.9825 52.987 73.6179 52.5677C73.2533 52.1483 72.8018 51.8133 72.2948 51.5858C71.7879 51.3582 71.2375 51.2436 70.6818 51.2499H59.8335Z" stroke="white" stroke-width="3" stroke-linecap="round" stroke-linejoin="round"/>
<defs>
<linearGradient id="paint0_linear" x1="93.0293" y1="14.7631" x2="17.364" y2="87.2411" gradientUnits="userSpaceOnUse">
<stop stop-color="#00B2EE" stop-opacity="0"/>
<stop offset="1" stop-color="#00B2EE" stop-opacity="0.36"/>
</linearGradient>
</defs>
</svg>
