<svg width="161" height="19" viewBox="0 0 161 19" fill="none" xmlns="http://www.w3.org/2000/svg">
<path d="M44.2496 5.97406C45.132 6.52669 45.8327 7.31616 46.3258 8.34248C46.8189 9.36879 47.0784 10.6056 47.0784 12.0004C47.0784 13.3951 46.8189 14.6056 46.3258 15.6583C45.8327 16.6846 45.132 17.4741 44.2496 18.0267C43.3672 18.5793 42.355 18.8425 41.265 18.8425C40.1491 18.8425 39.2148 18.5793 38.4362 18.0267C37.6576 17.5004 37.0866 16.7635 36.7493 15.8688V18.6583H33.4014V0.816162H36.7493V8.07932C37.0866 7.18458 37.6317 6.47406 38.4362 5.92143C39.2148 5.39511 40.175 5.13195 41.265 5.13195C42.355 5.13195 43.3672 5.42143 44.2496 5.97406ZM37.7095 9.15827C37.0607 9.86879 36.7233 10.7898 36.7233 12.0004C36.7233 13.1846 37.0607 14.1056 37.7095 14.8162C38.3583 15.5267 39.2148 15.8688 40.2269 15.8688C41.265 15.8688 42.1215 15.5267 42.7443 14.8425C43.3672 14.1583 43.7046 13.2109 43.7046 12.0004C43.7046 10.7898 43.3931 9.84248 42.7443 9.15827C42.1215 8.47406 41.265 8.13195 40.2269 8.13195C39.1888 8.10564 38.3583 8.44774 37.7095 9.15827Z" fill="white"/>
<path d="M58.5231 5.97381C59.5353 6.52644 60.3398 7.31592 60.9367 8.34223C61.5337 9.36855 61.8191 10.6054 61.8191 12.0001C61.8191 13.3949 61.5337 14.6054 60.9367 15.6317C60.3398 16.658 59.5353 17.4475 58.5231 18.0001C57.511 18.5528 56.3431 18.8422 55.0714 18.8422C53.7997 18.8422 52.6319 18.5528 51.6197 18.0001C50.6076 17.4475 49.803 16.658 49.2061 15.6317C48.6092 14.6054 48.3237 13.3949 48.3237 12.0001C48.3237 10.6054 48.6092 9.39486 49.2061 8.34223C49.803 7.31592 50.6076 6.52644 51.6197 5.97381C52.6319 5.42118 53.7997 5.15802 55.0714 5.15802C56.3431 5.1317 57.511 5.42118 58.5231 5.97381ZM52.6838 9.07907C52.035 9.73697 51.6976 10.7107 51.6976 11.9738C51.6976 13.237 52.035 14.2107 52.6838 14.8685C53.3326 15.5264 54.1371 15.8685 55.0714 15.8685C56.0057 15.8685 56.8103 15.5264 57.4591 14.8685C58.1079 14.2107 58.4453 13.237 58.4453 11.9738C58.4453 10.7107 58.1079 9.73697 57.4591 9.07907C56.8103 8.42118 56.0057 8.07907 55.0714 8.07907C54.1371 8.07907 53.3326 8.42118 52.6838 9.07907Z" fill="white"/>
<path d="M70.7469 15.7371V18.6581H68.9821C67.5028 18.6581 66.3868 18.2897 65.5823 17.5792C64.8037 16.8687 64.4144 15.6581 64.4144 13.9739V8.18445H62.5718V5.31603H64.4144V2.00024H67.7623V5.28972H70.7209V8.15814H67.7623V14.0002C67.7623 14.6318 67.8921 15.1055 68.1516 15.3423C68.4111 15.6055 68.8264 15.7371 69.4233 15.7371H70.7469Z" fill="white"/>
<path d="M93.6892 6.63172C94.6235 7.63172 95.0907 9.05278 95.0907 10.9212V18.6844H91.7687V11.3159C91.7687 10.2896 91.5092 9.50014 90.9901 8.94751C90.4711 8.39488 89.7704 8.10541 88.862 8.10541C87.9277 8.10541 87.1751 8.39488 86.6301 9.00014C86.0851 9.60541 85.7996 10.4738 85.7996 11.6054V18.6844H82.4777V11.3159C82.4777 10.2896 82.2181 9.50014 81.6991 8.94751C81.18 8.39488 80.4793 8.10541 79.571 8.10541C78.6367 8.10541 77.884 8.39488 77.339 9.00014C76.794 9.60541 76.5085 10.4738 76.5085 11.6054V18.6844H73.1606V5.31593H76.5085V7.84225C76.8459 6.97383 77.4169 6.31593 78.1695 5.84225C78.9221 5.36857 79.8045 5.13172 80.7907 5.13172C81.8548 5.13172 82.7631 5.39488 83.5677 5.89488C84.3463 6.4212 84.9432 7.15804 85.3324 8.10541C85.7477 7.18436 86.3706 6.47383 87.1751 5.9212C87.9796 5.39488 88.9139 5.10541 89.9261 5.10541C91.5092 5.13172 92.7809 5.63172 93.6892 6.63172Z" fill="white"/>
<path d="M105.575 5.94762C106.38 6.47393 106.925 7.18446 107.262 8.10551V5.31604H110.584V18.6581H107.262V15.8687C106.925 16.7634 106.354 17.5002 105.575 18.0266C104.771 18.5529 103.837 18.8424 102.721 18.8424C101.605 18.8424 100.618 18.5792 99.7361 18.0266C98.8537 17.4739 98.153 16.6845 97.6599 15.6581C97.1668 14.6318 96.9072 13.395 96.9072 12.0002C96.9072 10.6055 97.1668 9.39498 97.6599 8.34235C98.153 7.31604 98.8537 6.52656 99.7361 5.97393C100.618 5.4213 101.631 5.15814 102.721 5.15814C103.811 5.15814 104.771 5.4213 105.575 5.94762ZM101.241 9.13183C100.618 9.81604 100.281 10.7634 100.281 11.9739C100.281 13.1845 100.593 14.1318 101.241 14.816C101.864 15.5002 102.721 15.8424 103.759 15.8424C104.771 15.8424 105.601 15.5002 106.276 14.7897C106.925 14.0792 107.262 13.1581 107.262 11.9739C107.262 10.7897 106.925 9.84235 106.276 9.13183C105.627 8.4213 104.771 8.07919 103.759 8.07919C102.721 8.10551 101.89 8.44762 101.241 9.13183Z" fill="white"/>
<path d="M120.862 18.658L116.502 12.8159V18.658H113.154V0.815918H116.502V10.8422L120.836 5.2896H124.807L119.253 11.9738L124.936 18.6843H120.862V18.658Z" fill="white"/>
<path d="M137.861 12.6578H128.206C128.258 13.842 128.569 14.7105 129.166 15.2894C129.763 15.842 130.49 16.1315 131.346 16.1315C132.125 16.1315 132.774 15.9473 133.293 15.5526C133.812 15.1578 134.149 14.6578 134.279 13.9736H137.809C137.627 14.8947 137.264 15.7368 136.693 16.4736C136.122 17.2105 135.395 17.7894 134.487 18.2105C133.578 18.6315 132.592 18.842 131.502 18.842C130.23 18.842 129.089 18.5526 128.076 17.9999C127.09 17.4473 126.312 16.6578 125.741 15.6315C125.196 14.6052 124.91 13.3947 124.91 11.9999C124.91 10.6052 125.196 9.39468 125.741 8.34205C126.286 7.31573 127.064 6.52626 128.076 5.97363C129.063 5.42099 130.205 5.15784 131.502 5.15784C132.8 5.15784 133.942 5.42099 134.902 5.97363C135.888 6.52626 136.641 7.2631 137.16 8.23678C137.679 9.18415 137.964 10.2894 137.964 11.4999C137.99 11.842 137.964 12.2368 137.861 12.6578ZM133.76 8.68415C133.137 8.13152 132.41 7.84205 131.502 7.84205C130.594 7.84205 129.841 8.13152 129.218 8.68415C128.595 9.23678 128.258 10.0789 128.206 11.1578H134.591C134.668 10.0789 134.383 9.2631 133.76 8.68415Z" fill="white"/>
<path d="M145.672 5.86862C146.477 5.36862 147.385 5.13177 148.371 5.13177V8.76335H147.385C144.92 8.76335 143.7 9.92125 143.7 12.237V18.6844H140.352V5.3423H143.7V7.89493C144.219 7.05283 144.868 6.36862 145.672 5.86862Z" fill="white"/>
<path d="M158.156 6.39468C159.116 7.21047 159.713 8.31573 159.972 9.68415H156.832C156.702 9.05257 156.417 8.52626 155.976 8.13152C155.534 7.73678 154.963 7.55257 154.237 7.55257C153.666 7.55257 153.225 7.68415 152.913 7.97363C152.602 8.23678 152.446 8.60521 152.446 9.07889C152.446 9.44731 152.576 9.73678 152.835 9.97363C153.095 10.2105 153.406 10.3684 153.795 10.4999C154.185 10.6315 154.73 10.7894 155.43 10.9473C156.417 11.1842 157.247 11.421 157.87 11.6578C158.493 11.8947 159.038 12.2894 159.479 12.842C159.92 13.3684 160.154 14.1052 160.154 15.0263C160.154 16.1578 159.713 17.0789 158.83 17.7894C157.948 18.4999 156.754 18.842 155.275 18.842C153.562 18.842 152.186 18.4473 151.174 17.6842C150.136 16.8947 149.513 15.7894 149.306 14.342H152.524C152.602 14.9999 152.887 15.5263 153.38 15.8947C153.873 16.2631 154.522 16.4736 155.301 16.4736C155.872 16.4736 156.313 16.342 156.598 16.0526C156.91 15.7631 157.04 15.3947 157.04 14.9473C157.04 14.5526 156.91 14.2368 156.65 13.9999C156.391 13.7631 156.053 13.5789 155.664 13.4473C155.275 13.3157 154.73 13.1578 154.003 12.9999C153.017 12.7631 152.212 12.5526 151.615 12.3157C150.993 12.0789 150.474 11.7105 150.058 11.1842C149.617 10.6578 149.409 9.97363 149.409 9.05257C149.409 7.89468 149.851 6.94731 150.707 6.23678C151.59 5.52626 152.783 5.15784 154.315 5.15784C155.898 5.15784 157.169 5.57889 158.156 6.39468Z" fill="white"/>
<path d="M20.7362 3.15796H5.50197C2.4655 3.15796 0 5.65796 0 8.76322V11.158C0 13.5264 1.4793 15.5527 3.52956 16.3685L2.9586 19.0001L7.2927 16.7106H20.7102C23.7467 16.7106 26.2122 14.2106 26.2122 11.1316V8.73691C26.2382 5.65796 23.7726 3.15796 20.7362 3.15796Z" fill="url(#paint0_linear)"/>
<path d="M7.18907 5.71039C10.0439 5.71039 12.3796 7.7367 12.3796 10.263C12.3796 12.7893 10.0698 14.8156 7.18907 14.8156C4.33428 14.8156 1.99854 12.7893 1.99854 10.263C2.02449 7.7367 4.33428 5.71039 7.18907 5.71039Z" fill="white"/>
<path d="M10.9262 10.7105C10.9262 12.5 9.29113 13.9474 7.26682 13.9474C5.24251 13.9474 3.58154 12.5 3.58154 10.7105C3.58154 8.92106 5.21656 7.47369 7.26682 7.47369C7.5004 7.47369 7.73397 7.50001 7.96755 7.52633C8.20112 7.55264 8.40874 7.60527 8.61636 7.68422L7.26682 10.6842L10.1476 8.68422C10.1995 8.73685 10.2254 8.76317 10.2773 8.8158C10.6666 9.39475 10.9262 10.0263 10.9262 10.7105Z" fill="#303030"/>
<path d="M18.9977 5.71039C21.8525 5.71039 24.1882 7.7367 24.1882 10.263C24.1882 12.7893 21.8784 14.8156 18.9977 14.8156C16.1429 14.8156 13.8071 12.7893 13.8071 10.263C13.8071 7.7367 16.1429 5.71039 18.9977 5.71039Z" fill="white"/>
<path d="M22.9423 10.7105C22.9423 12.5 21.3072 13.9474 19.2829 13.9474C17.2586 13.9474 15.5977 12.5 15.5977 10.7105C15.5977 8.92106 17.2327 7.47369 19.2829 7.47369C19.5165 7.47369 19.7501 7.50001 19.9837 7.52633C20.2172 7.55264 20.4249 7.60527 20.6325 7.68422L19.2829 10.6842L22.1377 8.71054C22.1896 8.76317 22.2156 8.78948 22.2675 8.84211C22.6827 9.39475 22.9423 10.0263 22.9423 10.7105Z" fill="#303030"/>
<path d="M13.6515 0.947144H12.5615V3.13135H13.6515V0.947144Z" fill="white"/>
<path d="M13.0807 0C13.6776 0 14.1447 0.5 14.1447 1.07895C14.1447 1.68421 13.6776 2.15789 13.0807 2.15789C12.4837 2.15789 12.0166 1.65789 12.0166 1.07895C12.0166 0.5 12.5097 0 13.0807 0Z" fill="white"/>
<defs>
<linearGradient id="paint0_linear" x1="13.1148" y1="3.17571" x2="13.1148" y2="18.9928" gradientUnits="userSpaceOnUse">
<stop stop-color="#58C6D0"/>
<stop offset="1" stop-color="#3C888C"/>
</linearGradient>
</defs>
</svg>
