<svg width="128" height="19" viewBox="0 0 128 19" fill="none" xmlns="http://www.w3.org/2000/svg">
<path d="M11.2496 5.97406C12.132 6.52669 12.8327 7.31616 13.3258 8.34248C13.8189 9.36879 14.0784 10.6056 14.0784 12.0004C14.0784 13.3951 13.8189 14.6056 13.3258 15.6583C12.8327 16.6846 12.132 17.4741 11.2496 18.0267C10.3672 18.5793 9.35504 18.8425 8.26503 18.8425C7.14906 18.8425 6.21477 18.5793 5.43619 18.0267C4.65761 17.5004 4.08665 16.7635 3.74926 15.8688V18.6583H0.401367V0.816162H3.74926V8.07932C4.08665 7.18458 4.63166 6.47406 5.43619 5.92143C6.21477 5.39511 7.17502 5.13195 8.26503 5.13195C9.35504 5.13195 10.3672 5.42143 11.2496 5.97406ZM4.70951 9.15827C4.0607 9.86879 3.72331 10.7898 3.72331 12.0004C3.72331 13.1846 4.0607 14.1056 4.70951 14.8162C5.35833 15.5267 6.21477 15.8688 7.22692 15.8688C8.26503 15.8688 9.12147 15.5267 9.74433 14.8425C10.3672 14.1583 10.7046 13.2109 10.7046 12.0004C10.7046 10.7898 10.3931 9.84248 9.74433 9.15827C9.12147 8.47406 8.26503 8.13195 7.22692 8.13195C6.18881 8.10564 5.35833 8.44774 4.70951 9.15827Z" fill="white"/>
<path d="M25.5231 5.97381C26.5353 6.52644 27.3398 7.31592 27.9367 8.34223C28.5337 9.36855 28.8191 10.6054 28.8191 12.0001C28.8191 13.3949 28.5337 14.6054 27.9367 15.6317C27.3398 16.658 26.5353 17.4475 25.5231 18.0001C24.511 18.5528 23.3431 18.8422 22.0714 18.8422C20.7997 18.8422 19.6319 18.5528 18.6197 18.0001C17.6076 17.4475 16.803 16.658 16.2061 15.6317C15.6092 14.6054 15.3237 13.3949 15.3237 12.0001C15.3237 10.6054 15.6092 9.39486 16.2061 8.34223C16.803 7.31592 17.6076 6.52644 18.6197 5.97381C19.6319 5.42118 20.7997 5.15802 22.0714 5.15802C23.3431 5.1317 24.511 5.42118 25.5231 5.97381ZM19.6838 9.07907C19.035 9.73697 18.6976 10.7107 18.6976 11.9738C18.6976 13.237 19.035 14.2107 19.6838 14.8685C20.3326 15.5264 21.1371 15.8685 22.0714 15.8685C23.0057 15.8685 23.8103 15.5264 24.4591 14.8685C25.1079 14.2107 25.4453 13.237 25.4453 11.9738C25.4453 10.7107 25.1079 9.73697 24.4591 9.07907C23.8103 8.42118 23.0057 8.07907 22.0714 8.07907C21.1371 8.07907 20.3326 8.42118 19.6838 9.07907Z" fill="white"/>
<path d="M37.7469 15.7371V18.6581H35.9821C34.5028 18.6581 33.3868 18.2897 32.5823 17.5792C31.8037 16.8687 31.4144 15.6581 31.4144 13.9739V8.18445H29.5718V5.31603H31.4144V2.00024H34.7623V5.28972H37.7209V8.15814H34.7623V14.0002C34.7623 14.6318 34.8921 15.1055 35.1516 15.3423C35.4111 15.6055 35.8264 15.7371 36.4233 15.7371H37.7469Z" fill="white"/>
<path d="M60.6892 6.63172C61.6235 7.63172 62.0907 9.05278 62.0907 10.9212V18.6844H58.7687V11.3159C58.7687 10.2896 58.5092 9.50014 57.9901 8.94751C57.4711 8.39488 56.7704 8.10541 55.862 8.10541C54.9277 8.10541 54.1751 8.39488 53.6301 9.00014C53.0851 9.60541 52.7996 10.4738 52.7996 11.6054V18.6844H49.4777V11.3159C49.4777 10.2896 49.2181 9.50014 48.6991 8.94751C48.18 8.39488 47.4793 8.10541 46.571 8.10541C45.6367 8.10541 44.884 8.39488 44.339 9.00014C43.794 9.60541 43.5085 10.4738 43.5085 11.6054V18.6844H40.1606V5.31593H43.5085V7.84225C43.8459 6.97383 44.4169 6.31593 45.1695 5.84225C45.9221 5.36857 46.8045 5.13172 47.7907 5.13172C48.8548 5.13172 49.7631 5.39488 50.5677 5.89488C51.3463 6.4212 51.9432 7.15804 52.3324 8.10541C52.7477 7.18436 53.3706 6.47383 54.1751 5.9212C54.9796 5.39488 55.9139 5.10541 56.9261 5.10541C58.5092 5.13172 59.7809 5.63172 60.6892 6.63172Z" fill="white"/>
<path d="M72.5754 5.94762C73.38 6.47393 73.925 7.18446 74.2623 8.10551V5.31604H77.5843V18.6581H74.2623V15.8687C73.925 16.7634 73.354 17.5002 72.5754 18.0266C71.7709 18.5529 70.8366 18.8424 69.7206 18.8424C68.6047 18.8424 67.6185 18.5792 66.7361 18.0266C65.8537 17.4739 65.153 16.6845 64.6599 15.6581C64.1668 14.6318 63.9072 13.395 63.9072 12.0002C63.9072 10.6055 64.1668 9.39498 64.6599 8.34235C65.153 7.31604 65.8537 6.52656 66.7361 5.97393C67.6185 5.4213 68.6306 5.15814 69.7206 5.15814C70.8106 5.15814 71.7709 5.4213 72.5754 5.94762ZM68.2413 9.13183C67.6185 9.81604 67.2811 10.7634 67.2811 11.9739C67.2811 13.1845 67.5925 14.1318 68.2413 14.816C68.8642 15.5002 69.7206 15.8424 70.7587 15.8424C71.7709 15.8424 72.6014 15.5002 73.2761 14.7897C73.925 14.0792 74.2623 13.1581 74.2623 11.9739C74.2623 10.7897 73.925 9.84235 73.2761 9.13183C72.6273 8.4213 71.7709 8.07919 70.7587 8.07919C69.7206 8.10551 68.8901 8.44762 68.2413 9.13183Z" fill="white"/>
<path d="M87.8618 18.658L83.5017 12.8159V18.658H80.1538V0.815918H83.5017V10.8422L87.8358 5.2896H91.8066L86.2527 11.9738L91.9363 18.6843H87.8618V18.658Z" fill="white"/>
<path d="M104.861 12.6578H95.2062C95.2581 13.842 95.5695 14.7105 96.1664 15.2894C96.7633 15.842 97.49 16.1315 98.3464 16.1315C99.125 16.1315 99.7738 15.9473 100.293 15.5526C100.812 15.1578 101.149 14.6578 101.279 13.9736H104.809C104.627 14.8947 104.264 15.7368 103.693 16.4736C103.122 17.2105 102.395 17.7894 101.487 18.2105C100.578 18.6315 99.5922 18.842 98.5021 18.842C97.2305 18.842 96.0885 18.5526 95.0764 17.9999C94.0902 17.4473 93.3116 16.6578 92.7406 15.6315C92.1956 14.6052 91.9102 13.3947 91.9102 11.9999C91.9102 10.6052 92.1956 9.39468 92.7406 8.34205C93.2857 7.31573 94.0642 6.52626 95.0764 5.97363C96.0626 5.42099 97.2045 5.15784 98.5021 5.15784C99.7998 5.15784 100.942 5.42099 101.902 5.97363C102.888 6.52626 103.641 7.2631 104.16 8.23678C104.679 9.18415 104.964 10.2894 104.964 11.4999C104.99 11.842 104.964 12.2368 104.861 12.6578ZM100.76 8.68415C100.137 8.13152 99.4105 7.84205 98.5021 7.84205C97.5938 7.84205 96.8412 8.13152 96.2183 8.68415C95.5954 9.23678 95.2581 10.0789 95.2062 11.1578H101.591C101.668 10.0789 101.383 9.2631 100.76 8.68415Z" fill="white"/>
<path d="M112.672 5.86862C113.477 5.36862 114.385 5.13177 115.371 5.13177V8.76335H114.385C111.92 8.76335 110.7 9.92125 110.7 12.237V18.6844H107.352V5.3423H110.7V7.89493C111.219 7.05283 111.868 6.36862 112.672 5.86862Z" fill="white"/>
<path d="M125.156 6.39468C126.116 7.21047 126.713 8.31573 126.972 9.68415H123.832C123.702 9.05257 123.417 8.52626 122.976 8.13152C122.534 7.73678 121.963 7.55257 121.237 7.55257C120.666 7.55257 120.225 7.68415 119.913 7.97363C119.602 8.23678 119.446 8.60521 119.446 9.07889C119.446 9.44731 119.576 9.73678 119.835 9.97363C120.095 10.2105 120.406 10.3684 120.795 10.4999C121.185 10.6315 121.73 10.7894 122.43 10.9473C123.417 11.1842 124.247 11.421 124.87 11.6578C125.493 11.8947 126.038 12.2894 126.479 12.842C126.92 13.3684 127.154 14.1052 127.154 15.0263C127.154 16.1578 126.713 17.0789 125.83 17.7894C124.948 18.4999 123.754 18.842 122.275 18.842C120.562 18.842 119.186 18.4473 118.174 17.6842C117.136 16.8947 116.513 15.7894 116.306 14.342H119.524C119.602 14.9999 119.887 15.5263 120.38 15.8947C120.873 16.2631 121.522 16.4736 122.301 16.4736C122.872 16.4736 123.313 16.342 123.598 16.0526C123.91 15.7631 124.04 15.3947 124.04 14.9473C124.04 14.5526 123.91 14.2368 123.65 13.9999C123.391 13.7631 123.053 13.5789 122.664 13.4473C122.275 13.3157 121.73 13.1578 121.003 12.9999C120.017 12.7631 119.212 12.5526 118.615 12.3157C117.993 12.0789 117.474 11.7105 117.058 11.1842C116.617 10.6578 116.409 9.97363 116.409 9.05257C116.409 7.89468 116.851 6.94731 117.707 6.23678C118.59 5.52626 119.783 5.15784 121.315 5.15784C122.898 5.15784 124.169 5.57889 125.156 6.39468Z" fill="white"/>
</svg>
