<svg width="36" height="27" viewBox="0 0 36 27" fill="none" xmlns="http://www.w3.org/2000/svg">
<path d="M28.479 4.77411H7.55638C3.38611 4.77411 0 8.19516 0 12.4445V15.7215C0 18.9625 2.03167 21.7353 4.84749 22.8517L4.06333 26.4528L10.0158 23.3198H28.4433C32.6136 23.3198 35.9997 19.8988 35.9997 15.6855V12.4085C36.0354 8.19516 32.6493 4.77411 28.479 4.77411Z" fill="url(#paint0_linear)"/>
<path d="M9.87329 8.26691C13.7941 8.26691 17.0019 11.0398 17.0019 14.4968C17.0019 17.9539 13.8297 20.7267 9.87329 20.7267C5.95253 20.7267 2.74463 17.9539 2.74463 14.4968C2.78027 11.0398 5.95253 8.26691 9.87329 8.26691Z" fill="white"/>
<path d="M15.0055 15.1092C15.0055 17.558 12.76 19.5386 9.97981 19.5386C7.19963 19.5386 4.91846 17.558 4.91846 15.1092C4.91846 12.6605 7.16399 10.6799 9.97981 10.6799C10.3006 10.6799 10.6214 10.7159 10.9422 10.7519C11.263 10.7879 11.5481 10.8599 11.8333 10.968L9.97981 15.0732L13.9362 12.3364C14.0075 12.4084 14.0431 12.4444 14.1144 12.5164C14.6491 13.3087 15.0055 14.1729 15.0055 15.1092Z" fill="#303030"/>
<path d="M26.0915 8.26691C30.0123 8.26691 33.2202 11.0398 33.2202 14.4968C33.2202 17.9539 30.048 20.7267 26.0915 20.7267C22.1708 20.7267 18.9629 17.9539 18.9629 14.4968C18.9629 11.0398 22.1708 8.26691 26.0915 8.26691Z" fill="white"/>
<path d="M31.5089 15.1092C31.5089 17.558 29.2634 19.5386 26.4832 19.5386C23.703 19.5386 21.4219 17.558 21.4219 15.1092C21.4219 12.6605 23.6674 10.6799 26.4832 10.6799C26.804 10.6799 27.1248 10.7159 27.4456 10.7519C27.7664 10.7879 28.0515 10.8599 28.3367 10.968L26.4832 15.0732L30.404 12.3724C30.4753 12.4444 30.5109 12.4804 30.5822 12.5524C31.1525 13.3087 31.5089 14.1729 31.5089 15.1092Z" fill="#303030"/>
<path d="M18.749 1.74884H17.252V4.73776H18.749V1.74884Z" fill="white"/>
<path d="M17.9648 0.452759C18.7846 0.452759 19.4262 1.13697 19.4262 1.92921C19.4262 2.75747 18.7846 3.40567 17.9648 3.40567C17.145 3.40567 16.5034 2.72146 16.5034 1.92921C16.5034 1.13697 17.1806 0.452759 17.9648 0.452759Z" fill="white"/>
<defs>
<linearGradient id="paint0_linear" x1="18.0118" y1="4.7984" x2="18.0118" y2="26.4428" gradientUnits="userSpaceOnUse">
<stop stop-color="#58C6D0"/>
<stop offset="1" stop-color="#3C888C"/>
</linearGradient>
</defs>
</svg>
