<svg width="27" height="19" viewBox="0 0 27 19" fill="none" xmlns="http://www.w3.org/2000/svg">
<path d="M20.7362 3.15796H5.50197C2.4655 3.15796 0 5.65796 0 8.76322V11.158C0 13.5264 1.4793 15.5527 3.52956 16.3685L2.9586 19.0001L7.2927 16.7106H20.7102C23.7467 16.7106 26.2122 14.2106 26.2122 11.1316V8.73691C26.2382 5.65796 23.7726 3.15796 20.7362 3.15796Z" fill="url(#paint0_linear)"/>
<path d="M7.18907 5.71039C10.0439 5.71039 12.3796 7.7367 12.3796 10.263C12.3796 12.7893 10.0698 14.8156 7.18907 14.8156C4.33428 14.8156 1.99854 12.7893 1.99854 10.263C2.02449 7.7367 4.33428 5.71039 7.18907 5.71039Z" fill="white"/>
<path d="M10.9262 10.7105C10.9262 12.5 9.29113 13.9474 7.26682 13.9474C5.24251 13.9474 3.58154 12.5 3.58154 10.7105C3.58154 8.92106 5.21656 7.47369 7.26682 7.47369C7.5004 7.47369 7.73397 7.50001 7.96755 7.52633C8.20112 7.55264 8.40874 7.60527 8.61636 7.68422L7.26682 10.6842L10.1476 8.68422C10.1995 8.73685 10.2254 8.76317 10.2773 8.8158C10.6666 9.39475 10.9262 10.0263 10.9262 10.7105Z" fill="#303030"/>
<path d="M18.9977 5.71039C21.8525 5.71039 24.1882 7.7367 24.1882 10.263C24.1882 12.7893 21.8784 14.8156 18.9977 14.8156C16.1429 14.8156 13.8071 12.7893 13.8071 10.263C13.8071 7.7367 16.1429 5.71039 18.9977 5.71039Z" fill="white"/>
<path d="M22.9423 10.7105C22.9423 12.5 21.3072 13.9474 19.2829 13.9474C17.2586 13.9474 15.5977 12.5 15.5977 10.7105C15.5977 8.92106 17.2327 7.47369 19.2829 7.47369C19.5165 7.47369 19.7501 7.50001 19.9837 7.52633C20.2172 7.55264 20.4249 7.60527 20.6325 7.68422L19.2829 10.6842L22.1377 8.71054C22.1896 8.76317 22.2156 8.78948 22.2675 8.84211C22.6827 9.39475 22.9423 10.0263 22.9423 10.7105Z" fill="#303030"/>
<path d="M13.6515 0.947144H12.5615V3.13135H13.6515V0.947144Z" fill="white"/>
<path d="M13.0807 0C13.6776 0 14.1447 0.5 14.1447 1.07895C14.1447 1.68421 13.6776 2.15789 13.0807 2.15789C12.4837 2.15789 12.0166 1.65789 12.0166 1.07895C12.0166 0.5 12.5097 0 13.0807 0Z" fill="white"/>
<defs>
<linearGradient id="paint0_linear" x1="13.1148" y1="3.17571" x2="13.1148" y2="18.9928" gradientUnits="userSpaceOnUse">
<stop stop-color="#58C6D0"/>
<stop offset="1" stop-color="#3C888C"/>
</linearGradient>
</defs>
</svg>
