<svg width="434" height="488" viewBox="0 0 434 488" fill="none" xmlns="http://www.w3.org/2000/svg">
<path fill-rule="evenodd" clip-rule="evenodd" d="M202.395 3.01646C251.257 -9.00329 301.945 16.7122 343.076 48.0617C384.838 79.892 423.996 123.499 432.63 178.498C440.888 231.101 410.084 279.538 386.768 326.379C367.58 364.928 341.766 396.534 310.472 423.912C277.685 452.596 244.141 491.943 202.395 487.681C160.966 483.452 138.87 433.864 107.999 403.241C81.2539 376.711 49.8202 356.242 34.0313 320.669C16.5007 281.172 1.96248 235.317 15.0348 193.791C28.0382 152.483 71.9204 137.306 101.11 107.585C135.942 72.1175 156.035 14.421 202.395 3.01646Z" fill="url(#paint0_linear)"/>
<g filter="url(#filter0_d)">
<path d="M338.757 337.685C338.757 345.544 332.633 351.994 325.17 351.994H23.5866C16.1239 351.994 10 345.544 10 337.685V124.048C10 116.189 16.1239 109.739 23.5866 109.739H325.17C332.633 109.739 338.757 116.189 338.757 124.048V337.685Z" fill="white"/>
</g>
<mask id="mask0" mask-type="alpha" maskUnits="userSpaceOnUse" x="10" y="110" width="329" height="243">
<path d="M338.757 338.042C338.757 345.902 332.633 352.351 325.17 352.351H23.5866C16.1239 352.351 10 345.902 10 338.042V124.405C10 116.546 16.1239 110.097 23.5866 110.097H325.17C332.633 110.097 338.757 116.546 338.757 124.405V338.042Z" fill="white"/>
</mask>
<g mask="url(#mask0)">
<path d="M300 182H41C38.7909 182 37 183.791 37 186V263C37 265.209 38.7909 267 41 267H300C302.209 267 304 265.209 304 263V186C304 183.791 302.209 182 300 182Z" fill="url(#paint1_linear)"/>
<g filter="url(#filter1_d)">
<path d="M109.06 250.928C109.28 250.928 91.4746 242.875 89.7271 235.873C88.3707 230.429 88.5662 214.469 88.7373 207.225C88.7862 205.197 90.6436 203.579 92.9166 203.579H125.41C127.683 203.579 129.541 205.197 129.59 207.225C129.761 214.469 129.956 230.429 128.6 235.873C126.852 242.887 109.047 250.928 109.267 250.928" fill="white"/>
</g>
<path d="M129.018 226.807H89.2587C88.5032 226.807 87.8839 226.216 87.8715 225.469L87.7228 214.78C87.7104 214.021 88.3421 213.406 89.1101 213.406H129.217C129.997 213.406 130.616 214.021 130.604 214.78L130.406 225.469C130.393 226.216 129.774 226.807 129.018 226.807Z" fill="#01C3CB"/>
<g filter="url(#filter2_d)">
<path d="M170.701 250.928C170.921 250.928 153.116 242.875 151.369 235.873C150.012 230.429 150.208 214.469 150.379 207.225C150.428 205.197 152.285 203.579 154.558 203.579H187.052C189.325 203.579 191.182 205.197 191.231 207.225C191.402 214.469 191.598 230.429 190.241 235.873C188.494 242.887 170.689 250.928 170.909 250.928" fill="white"/>
</g>
<path d="M190.66 226.807H150.9C150.145 226.807 149.525 226.216 149.513 225.469L149.364 214.78C149.352 214.021 149.984 213.406 150.752 213.406H190.858C191.638 213.406 192.258 214.021 192.245 214.78L192.047 225.469C192.035 226.216 191.415 226.807 190.66 226.807Z" fill="#303552"/>
<g filter="url(#filter3_d)">
<path d="M232.344 250.928C232.564 250.928 214.759 242.875 213.011 235.873C211.655 230.429 211.85 214.469 212.021 207.225C212.07 205.197 213.928 203.58 216.201 203.58H248.695C250.968 203.58 252.825 205.197 252.874 207.225C253.045 214.469 253.24 230.429 251.884 235.873C250.137 242.887 232.332 250.928 232.552 250.928" fill="white"/>
</g>
<path d="M252.303 226.807H212.543C211.787 226.807 211.168 226.216 211.156 225.469L211.007 214.78C210.995 214.021 211.626 213.406 212.394 213.406H252.501C253.281 213.406 253.9 214.021 253.888 214.78L253.69 225.469C253.677 226.216 253.058 226.807 252.303 226.807Z" fill="#00B2EE"/>
<path d="M214.152 284.729H43.4805C41.2713 284.729 39.4805 286.519 39.4805 288.729V289.662C39.4805 291.871 41.2713 293.662 43.4805 293.662H214.152C216.362 293.662 218.152 291.871 218.152 289.662V288.729C218.152 286.519 216.362 284.729 214.152 284.729Z" fill="url(#paint2_linear)"/>
<path d="M147.15 306.169H43.4805C41.2713 306.169 39.4805 307.96 39.4805 310.169V311.103C39.4805 313.312 41.2713 315.103 43.4805 315.103H147.15C149.36 315.103 151.15 313.312 151.15 311.103V310.169C151.15 307.96 149.36 306.169 147.15 306.169Z" fill="url(#paint3_linear)"/>
<rect x="6.42676" y="110.097" width="335.305" height="54.9983" fill="#F3FAFF"/>
<path d="M72.5352 139.904C72.5352 143.598 69.538 146.604 65.835 146.604C62.1412 146.604 59.1348 143.607 59.1348 139.904C59.1348 136.201 62.132 133.204 65.835 133.204C69.538 133.213 72.5352 136.21 72.5352 139.904Z" fill="url(#paint4_linear)"/>
<path d="M51.0947 139.904C51.0947 143.598 48.0975 146.604 44.3945 146.604C40.7007 146.604 37.6943 143.607 37.6943 139.904C37.6943 136.201 40.6916 133.204 44.3945 133.204C48.0975 133.213 51.0947 136.21 51.0947 139.904Z" fill="url(#paint5_linear)"/>
<path d="M307.062 133.324H92.6152C90.4061 133.324 88.6152 135.115 88.6152 137.324V142.724C88.6152 144.934 90.4061 146.724 92.6152 146.724H307.062C309.271 146.724 311.062 144.934 311.062 142.724V137.324C311.062 135.115 309.271 133.324 307.062 133.324Z" fill="url(#paint6_linear)"/>
</g>
<g clip-path="url(#clip0)">
<path d="M233.003 321.433C233.342 306.59 239.445 292.758 250.184 282.486C260.908 272.23 274.991 266.736 289.836 267.01C304.686 266.732 318.764 272.23 329.487 282.486C340.227 292.758 346.328 306.59 346.668 321.432L346.669 321.479V321.525C346.591 336.651 340.102 351.032 328.836 361.111V374.825C328.836 377.487 326.973 379.805 324.409 380.338C324.029 380.417 323.646 380.457 323.266 380.457C322.234 380.457 321.219 380.169 320.326 379.612L309.282 372.726C303.054 374.903 296.555 376.006 289.948 376.006H289.865C289.499 376.013 289.137 376.016 288.772 376.016C274.317 376.015 260.651 370.54 250.184 360.53C239.445 350.257 233.342 336.426 233.003 321.584L233.001 321.508L233.003 321.433ZM265.412 341.706H289.429C291.269 341.706 292.762 340.216 292.762 338.38C292.762 336.542 291.269 335.052 289.429 335.052H265.412C263.57 335.052 262.078 336.542 262.078 338.38C262.078 340.216 263.57 341.706 265.412 341.706ZM265.412 326.989H314.26C316.1 326.989 317.593 325.499 317.593 323.662C317.593 321.825 316.1 320.335 314.26 320.335H265.412C263.57 320.335 262.078 321.825 262.078 323.662C262.078 325.499 263.57 326.989 265.412 326.989ZM265.412 312.272H314.26C316.1 312.272 317.593 310.782 317.593 308.944C317.593 307.107 316.1 305.618 314.26 305.618H265.412C263.57 305.618 262.078 307.107 262.078 308.944C262.078 310.782 263.57 312.272 265.412 312.272Z" fill="url(#paint7_linear)"/>
</g>
<defs>
<filter id="filter0_d" x="0" y="103.739" width="348.757" height="262.254" filterUnits="userSpaceOnUse" color-interpolation-filters="sRGB">
<feFlood flood-opacity="0" result="BackgroundImageFix"/>
<feColorMatrix in="SourceAlpha" type="matrix" values="0 0 0 0 0 0 0 0 0 0 0 0 0 0 0 0 0 0 127 0"/>
<feOffset dy="4"/>
<feGaussianBlur stdDeviation="5"/>
<feColorMatrix type="matrix" values="0 0 0 0 0.235294 0 0 0 0 0.647059 0 0 0 0 0.819608 0 0 0 0.2 0"/>
<feBlend mode="normal" in2="BackgroundImageFix" result="effect1_dropShadow"/>
<feBlend mode="normal" in="SourceGraphic" in2="effect1_dropShadow" result="shape"/>
</filter>
<filter id="filter1_d" x="78.6162" y="197.579" width="61.0946" height="67.3481" filterUnits="userSpaceOnUse" color-interpolation-filters="sRGB">
<feFlood flood-opacity="0" result="BackgroundImageFix"/>
<feColorMatrix in="SourceAlpha" type="matrix" values="0 0 0 0 0 0 0 0 0 0 0 0 0 0 0 0 0 0 127 0"/>
<feOffset dy="4"/>
<feGaussianBlur stdDeviation="5"/>
<feColorMatrix type="matrix" values="0 0 0 0 0.235294 0 0 0 0 0.647059 0 0 0 0 0.819608 0 0 0 0.2 0"/>
<feBlend mode="normal" in2="BackgroundImageFix" result="effect1_dropShadow"/>
<feBlend mode="normal" in="SourceGraphic" in2="effect1_dropShadow" result="shape"/>
</filter>
<filter id="filter2_d" x="140.258" y="197.579" width="61.0946" height="67.3481" filterUnits="userSpaceOnUse" color-interpolation-filters="sRGB">
<feFlood flood-opacity="0" result="BackgroundImageFix"/>
<feColorMatrix in="SourceAlpha" type="matrix" values="0 0 0 0 0 0 0 0 0 0 0 0 0 0 0 0 0 0 127 0"/>
<feOffset dy="4"/>
<feGaussianBlur stdDeviation="5"/>
<feColorMatrix type="matrix" values="0 0 0 0 0.235294 0 0 0 0 0.647059 0 0 0 0 0.819608 0 0 0 0.2 0"/>
<feBlend mode="normal" in2="BackgroundImageFix" result="effect1_dropShadow"/>
<feBlend mode="normal" in="SourceGraphic" in2="effect1_dropShadow" result="shape"/>
</filter>
<filter id="filter3_d" x="201.9" y="197.58" width="61.0946" height="67.3481" filterUnits="userSpaceOnUse" color-interpolation-filters="sRGB">
<feFlood flood-opacity="0" result="BackgroundImageFix"/>
<feColorMatrix in="SourceAlpha" type="matrix" values="0 0 0 0 0 0 0 0 0 0 0 0 0 0 0 0 0 0 127 0"/>
<feOffset dy="4"/>
<feGaussianBlur stdDeviation="5"/>
<feColorMatrix type="matrix" values="0 0 0 0 0.235294 0 0 0 0 0.647059 0 0 0 0 0.819608 0 0 0 0.2 0"/>
<feBlend mode="normal" in2="BackgroundImageFix" result="effect1_dropShadow"/>
<feBlend mode="normal" in="SourceGraphic" in2="effect1_dropShadow" result="shape"/>
</filter>
<linearGradient id="paint0_linear" x1="359.066" y1="63.7557" x2="37.4335" y2="331.435" gradientUnits="userSpaceOnUse">
<stop stop-color="#00B2EE" stop-opacity="0"/>
<stop offset="1" stop-color="#00B2EE" stop-opacity="0.36"/>
</linearGradient>
<linearGradient id="paint1_linear" x1="327.502" y1="226.69" x2="21.5194" y2="226.69" gradientUnits="userSpaceOnUse">
<stop stop-color="#00B2EE" stop-opacity="0"/>
<stop offset="1" stop-color="#00B2EE" stop-opacity="0.36"/>
</linearGradient>
<linearGradient id="paint2_linear" x1="233.88" y1="289.425" x2="29.1211" y2="289.425" gradientUnits="userSpaceOnUse">
<stop stop-color="#00B2EE" stop-opacity="0"/>
<stop offset="1" stop-color="#00B2EE" stop-opacity="0.36"/>
</linearGradient>
<linearGradient id="paint3_linear" x1="160.98" y1="310.866" x2="33.0058" y2="310.866" gradientUnits="userSpaceOnUse">
<stop stop-color="#00B2EE" stop-opacity="0"/>
<stop offset="1" stop-color="#00B2EE" stop-opacity="0.36"/>
</linearGradient>
<linearGradient id="paint4_linear" x1="73.7147" y1="140.249" x2="58.3578" y2="140.249" gradientUnits="userSpaceOnUse">
<stop stop-color="#00B2EE" stop-opacity="0"/>
<stop offset="1" stop-color="#00B2EE" stop-opacity="0.36"/>
</linearGradient>
<linearGradient id="paint5_linear" x1="52.2743" y1="140.249" x2="36.9174" y2="140.249" gradientUnits="userSpaceOnUse">
<stop stop-color="#00B2EE" stop-opacity="0"/>
<stop offset="1" stop-color="#00B2EE" stop-opacity="0.36"/>
</linearGradient>
<linearGradient id="paint6_linear" x1="330.642" y1="140.369" x2="75.7178" y2="140.369" gradientUnits="userSpaceOnUse">
<stop stop-color="#00B2EE" stop-opacity="0"/>
<stop offset="1" stop-color="#00B2EE" stop-opacity="0.36"/>
</linearGradient>
<linearGradient id="paint7_linear" x1="336.486" y1="273.753" x2="128.155" y2="397.476" gradientUnits="userSpaceOnUse">
<stop stop-color="#434E91"/>
<stop offset="0.932292" stop-color="#30C2FF"/>
</linearGradient>
<clipPath id="clip0">
<rect width="113.457" height="113.457" fill="white" transform="matrix(-1 0 0 1 346.457 267)"/>
</clipPath>
</defs>
</svg>
